<svg width="1200" height="720" viewBox="0 0 1200 720" xmlns="http://www.w3.org/2000/svg" font-family="Inter,ui-sans-serif,system-ui,sans-serif">
  <rect width="1200" height="720" fill="#0d1117"/>

  <!-- Top nav -->
  <rect width="1200" height="48" fill="#161b22"/>
  <rect x="0" y="47" width="1200" height="1" fill="#30363d"/>
  <!-- ArgoCD logo area -->
  <circle cx="24" cy="24" r="14" fill="#f05033"/>
  <text x="24" y="29" text-anchor="middle" font-size="12" font-weight="700" fill="#fff">Ar</text>
  <text x="52" y="29" font-size="14" font-weight="600" fill="#e6edf3">Argo CD</text>
  <!-- Nav items -->
  <text x="160" y="29" font-size="13" fill="#8b949e">Applications</text>
  <text x="280" y="29" font-size="13" fill="#8b949e">Settings</text>
  <text x="370" y="29" font-size="13" fill="#8b949e">User Info</text>
  <!-- Right nav -->
  <text x="1050" y="29" font-size="12" fill="#8b949e">admin</text>
  <rect x="1100" y="12" width="88" height="24" rx="4" fill="#1c2128" stroke="#30363d" stroke-width="0.5"/>
  <text x="1144" y="28" text-anchor="middle" font-size="11" fill="#8b949e">Sign out</text>

  <!-- Left sidebar -->
  <rect width="220" height="720" fill="#161b22" y="48"/>
  <rect x="219" y="48" width="1" height="672" fill="#30363d"/>

  <!-- App list header -->
  <text x="12" y="76" font-size="11" font-weight="600" fill="#8b949e">APPLICATIONS</text>
  <!-- orbital-production (selected) -->
  <rect x="0" y="80" width="219" height="56" fill="#1c2128"/>
  <rect x="0" y="80" width="3" height="56" fill="#f05033"/>
  <text x="16" y="100" font-size="13" font-weight="600" fill="#e6edf3">orbital-production</text>
  <rect x="16" y="106" width="52" height="16" rx="8" fill="#1a472a"/>
  <text x="42" y="118" text-anchor="middle" font-size="10" font-weight="600" fill="#3fb950">Healthy</text>
  <rect x="74" y="106" width="52" height="16" rx="8" fill="#1a3347"/>
  <text x="100" y="118" text-anchor="middle" font-size="10" font-weight="600" fill="#58a6ff">Synced</text>
  <!-- orbital-staging -->
  <rect x="0" y="136" width="219" height="56" fill="#161b22"/>
  <text x="16" y="156" font-size="13" fill="#8b949e">orbital-staging</text>
  <rect x="16" y="162" width="52" height="16" rx="8" fill="#1a472a"/>
  <text x="42" y="174" text-anchor="middle" font-size="10" fill="#3fb950">Healthy</text>
  <rect x="74" y="162" width="52" height="16" rx="8" fill="#1a3347"/>
  <text x="100" y="174" text-anchor="middle" font-size="10" fill="#58a6ff">Synced</text>

  <!-- ─── MAIN CONTENT ─── -->
  <!-- Breadcrumb -->
  <text x="232" y="68" font-size="12" fill="#8b949e">Applications /</text>
  <text x="340" y="68" font-size="12" fill="#e6edf3">orbital-production</text>

  <!-- App header card -->
  <rect x="232" y="76" width="956" height="88" rx="6" fill="#161b22" stroke="#30363d" stroke-width="0.5"/>

  <!-- App name + status -->
  <text x="252" y="104" font-size="18" font-weight="700" fill="#e6edf3">orbital-production</text>
  <rect x="252" y="112" width="64" height="20" rx="10" fill="#1a472a" stroke="#2ea043" stroke-width="0.5"/>
  <text x="284" y="126" text-anchor="middle" font-size="11" font-weight="600" fill="#3fb950">● Healthy</text>
  <rect x="324" y="112" width="60" height="20" rx="10" fill="#1a3347" stroke="#1f6feb" stroke-width="0.5"/>
  <text x="354" y="126" text-anchor="middle" font-size="11" font-weight="600" fill="#58a6ff">⟳ Synced</text>

  <!-- App metadata -->
  <text x="500" y="100" font-size="11" fill="#8b949e">Project</text>
  <text x="500" y="116" font-size="12" fill="#e6edf3">default</text>
  <text x="620" y="100" font-size="11" fill="#8b949e">Cluster</text>
  <text x="620" y="116" font-size="12" fill="#58a6ff">in-cluster</text>
  <text x="760" y="100" font-size="11" fill="#8b949e">Namespace</text>
  <text x="760" y="116" font-size="12" fill="#e6edf3">orbital</text>
  <text x="880" y="100" font-size="11" fill="#8b949e">Last synced</text>
  <text x="880" y="116" font-size="12" fill="#e6edf3">2 minutes ago</text>

  <!-- Source info -->
  <text x="252" y="152" font-size="11" fill="#8b949e">Repo:</text>
  <text x="290" y="152" font-size="11" fill="#58a6ff">github.com/aryalrishi29-blip/orbital</text>
  <text x="560" y="152" font-size="11" fill="#8b949e">Path:</text>
  <text x="592" y="152" font-size="11" fill="#e6edf3">k8s/overlays/production</text>
  <text x="800" y="152" font-size="11" fill="#8b949e">Target:</text>
  <text x="840" y="152" font-size="11" fill="#3fb950">main @ a3f9c82</text>

  <!-- Action buttons -->
  <rect x="1020" y="88" width="80" height="28" rx="4" fill="#21262d" stroke="#30363d" stroke-width="0.5"/>
  <text x="1060" y="106" text-anchor="middle" font-size="12" fill="#e6edf3">⟳ Sync</text>
  <rect x="1108" y="88" width="72" height="28" rx="4" fill="#21262d" stroke="#30363d" stroke-width="0.5"/>
  <text x="1144" y="106" text-anchor="middle" font-size="12" fill="#e6edf3">Details</text>

  <!-- Tabs -->
  <rect x="232" y="172" width="956" height="32" fill="#0d1117"/>
  <text x="252" y="192" font-size="13" font-weight="600" fill="#e6edf3">Summary</text>
  <rect x="246" y="200" width="60" height="2" rx="1" fill="#f05033"/>
  <text x="336" y="192" font-size="13" fill="#8b949e">Events</text>
  <text x="412" y="192" font-size="13" fill="#8b949e">History</text>
  <text x="500" y="192" font-size="13" fill="#8b949e">Parameters</text>
  <text x="620" y="192" font-size="13" fill="#8b949e">Manifest</text>

  <!-- ─── RESOURCE TREE ─── -->
  <text x="232" y="226" font-size="11" font-weight="600" fill="#8b949e">RESOURCES</text>

  <!-- Rollout node -->
  <rect x="232" y="234" width="220" height="56" rx="6" fill="#161b22" stroke="#1f6feb" stroke-width="1.5"/>
  <text x="252" y="256" font-size="12" font-weight="600" fill="#e6edf3">Rollout</text>
  <text x="252" y="272" font-size="11" fill="#8b949e">orbital</text>
  <rect x="352" y="248" width="64" height="18" rx="9" fill="#1a472a"/>
  <text x="384" y="260" text-anchor="middle" font-size="10" font-weight="600" fill="#3fb950">● Healthy</text>
  <!-- connector lines -->
  <line x1="452" y1="262" x2="476" y2="262" stroke="#30363d" stroke-width="1"/>

  <!-- ReplicaSet (blue) -->
  <rect x="476" y="234" width="200" height="56" rx="6" fill="#161b22" stroke="#30363d" stroke-width="0.5"/>
  <text x="496" y="256" font-size="12" font-weight="600" fill="#e6edf3">ReplicaSet</text>
  <text x="496" y="272" font-size="11" fill="#8b949e">orbital-d4b9f (active)</text>
  <rect x="590" y="248" width="52" height="18" rx="9" fill="#1a472a"/>
  <text x="616" y="260" text-anchor="middle" font-size="10" fill="#3fb950">5/5</text>

  <!-- Pod nodes -->
  <line x1="676" y1="250" x2="700" y2="230" stroke="#30363d" stroke-width="1"/>
  <line x1="676" y1="262" x2="700" y2="262" stroke="#30363d" stroke-width="1"/>
  <line x1="676" y1="274" x2="700" y2="294" stroke="#30363d" stroke-width="1"/>

  <rect x="700" y="218" width="160" height="28" rx="4" fill="#161b22" stroke="#30363d" stroke-width="0.5"/>
  <text x="716" y="236" font-size="11" fill="#e6edf3">orbital-d4b9f-x7k2p</text>
  <rect x="828" y="222" width="24" height="16" rx="8" fill="#1a472a"/>
  <text x="840" y="234" text-anchor="middle" font-size="10" fill="#3fb950">✓</text>

  <rect x="700" y="250" width="160" height="28" rx="4" fill="#161b22" stroke="#30363d" stroke-width="0.5"/>
  <text x="716" y="268" font-size="11" fill="#e6edf3">orbital-d4b9f-m9n3q</text>
  <rect x="828" y="254" width="24" height="16" rx="8" fill="#1a472a"/>
  <text x="840" y="266" text-anchor="middle" font-size="10" fill="#3fb950">✓</text>

  <rect x="700" y="282" width="160" height="28" rx="4" fill="#161b22" stroke="#30363d" stroke-width="0.5"/>
  <text x="716" y="300" font-size="11" fill="#e6edf3">orbital-d4b9f-p2r8w</text>
  <rect x="828" y="286" width="24" height="16" rx="8" fill="#1a472a"/>
  <text x="840" y="298" text-anchor="middle" font-size="10" fill="#3fb950">✓</text>

  <!-- Services -->
  <line x1="452" y1="285" x2="476" y2="330" stroke="#30363d" stroke-width="1"/>
  <rect x="476" y="310" width="200" height="40" rx="6" fill="#161b22" stroke="#30363d" stroke-width="0.5"/>
  <text x="496" y="328" font-size="12" font-weight="600" fill="#e6edf3">Service</text>
  <text x="496" y="343" font-size="11" fill="#8b949e">orbital (active)</text>
  <rect x="600" y="316" width="52" height="18" rx="9" fill="#1a472a"/>
  <text x="626" y="328" text-anchor="middle" font-size="10" fill="#3fb950">Healthy</text>

  <line x1="452" y1="285" x2="476" y2="380" stroke="#30363d" stroke-width="1"/>
  <rect x="476" y="362" width="200" height="40" rx="6" fill="#161b22" stroke="#30363d" stroke-width="0.5"/>
  <text x="496" y="380" font-size="12" font-weight="600" fill="#e6edf3">Service</text>
  <text x="496" y="395" font-size="11" fill="#8b949e">orbital-preview</text>
  <rect x="600" y="368" width="52" height="18" rx="9" fill="#1a472a"/>
  <text x="626" y="380" text-anchor="middle" font-size="10" fill="#3fb950">Healthy</text>

  <!-- HPA -->
  <line x1="452" y1="262" x2="476" y2="424" stroke="#30363d" stroke-width="1"/>
  <rect x="476" y="408" width="200" height="40" rx="6" fill="#161b22" stroke="#30363d" stroke-width="0.5"/>
  <text x="496" y="426" font-size="12" font-weight="600" fill="#e6edf3">HorizontalPodAutoscaler</text>
  <text x="496" y="441" font-size="11" fill="#8b949e">orbital · 5/10 pods</text>

  <!-- Ingress -->
  <rect x="476" y="460" width="200" height="40" rx="6" fill="#161b22" stroke="#30363d" stroke-width="0.5"/>
  <text x="496" y="478" font-size="12" font-weight="600" fill="#e6edf3">Ingress</text>
  <text x="496" y="493" font-size="11" fill="#58a6ff">api.orbital.dev</text>
  <rect x="600" y="466" width="52" height="18" rx="9" fill="#1a472a"/>
  <text x="626" y="478" text-anchor="middle" font-size="10" fill="#3fb950">Healthy</text>

  <!-- ─── SYNC HISTORY panel ─── -->
  <rect x="880" y="210" width="308" height="300" rx="6" fill="#161b22" stroke="#30363d" stroke-width="0.5"/>
  <text x="896" y="232" font-size="12" font-weight="600" fill="#e6edf3">Sync history</text>
  <line x1="880" y1="240" x2="1188" y2="240" stroke="#30363d" stroke-width="0.5"/>

  <!-- history rows -->
  <rect x="892" y="248" width="8" height="8" rx="4" fill="#3fb950"/>
  <text x="908" y="258" font-size="11" fill="#e6edf3">a3f9c82</text>
  <text x="980" y="258" font-size="11" fill="#8b949e">2 min ago</text>
  <text x="1080" y="258" font-size="11" fill="#3fb950">Succeeded</text>

  <rect x="892" y="272" width="8" height="8" rx="4" fill="#3fb950"/>
  <text x="908" y="282" font-size="11" fill="#e6edf3">7d2a1bc</text>
  <text x="980" y="282" font-size="11" fill="#8b949e">3 hrs ago</text>
  <text x="1080" y="282" font-size="11" fill="#3fb950">Succeeded</text>

  <rect x="892" y="296" width="8" height="8" rx="4" fill="#3fb950"/>
  <text x="908" y="306" font-size="11" fill="#e6edf3">1e8b3cd</text>
  <text x="980" y="306" font-size="11" fill="#8b949e">Yesterday</text>
  <text x="1080" y="306" font-size="11" fill="#3fb950">Succeeded</text>

  <rect x="892" y="320" width="8" height="8" rx="4" fill="#3fb950"/>
  <text x="908" y="330" font-size="11" fill="#e6edf3">f4c92de</text>
  <text x="980" y="330" font-size="11" fill="#8b949e">2 days ago</text>
  <text x="1080" y="330" font-size="11" fill="#3fb950">Succeeded</text>

  <rect x="892" y="344" width="8" height="8" rx="4" fill="#e3b341"/>
  <text x="908" y="354" font-size="11" fill="#e6edf3">3a7f1bc</text>
  <text x="980" y="354" font-size="11" fill="#8b949e">3 days ago</text>
  <text x="1080" y="354" font-size="11" fill="#e3b341">Rolled back</text>

  <!-- ─── EVENTS panel ─── -->
  <rect x="880" y="522" width="308" height="172" rx="6" fill="#161b22" stroke="#30363d" stroke-width="0.5"/>
  <text x="896" y="542" font-size="12" font-weight="600" fill="#e6edf3">Recent events</text>
  <line x1="880" y1="550" x2="1188" y2="550" stroke="#30363d" stroke-width="0.5"/>
  <text x="892" y="568" font-size="11" fill="#8b949e">14:32:01</text>
  <text x="960" y="568" font-size="11" fill="#3fb950">Sync successful · a3f9c82</text>
  <text x="892" y="585" font-size="11" fill="#8b949e">14:31:47</text>
  <text x="960" y="585" font-size="11" fill="#e6edf3">Analysis passed · success_rate=99.4%</text>
  <text x="892" y="602" font-size="11" fill="#8b949e">14:29:12</text>
  <text x="960" y="602" font-size="11" fill="#e6edf3">Blue-green promoted · green→active</text>
  <text x="892" y="619" font-size="11" fill="#8b949e">14:28:03</text>
  <text x="960" y="619" font-size="11" fill="#58a6ff">Rollout progressing · green pods ready</text>
  <text x="892" y="636" font-size="11" fill="#8b949e">14:26:55</text>
  <text x="960" y="636" font-size="11" fill="#58a6ff">Sync started · new image detected</text>
  <text x="892" y="653" font-size="11" fill="#8b949e">14:25:10</text>
  <text x="960" y="653" font-size="11" fill="#e6edf3">Manifest commit · aryalrishi29-blip</text>
  <text x="892" y="670" font-size="11" fill="#8b949e">14:24:38</text>
  <text x="960" y="670" font-size="11" fill="#e6edf3">Image pushed to ECR · a3f9c82</text>

  <!-- bottom bar -->
  <rect x="0" y="704" width="1200" height="16" fill="#161b22"/>
  <text x="232" y="715" font-size="10" fill="#8b949e">Argo CD v2.10.0 · Connected to in-cluster · All applications healthy</text>
</svg>
