<svg width="1200" height="680" viewBox="0 0 1200 680" xmlns="http://www.w3.org/2000/svg" font-family="Inter,ui-sans-serif,system-ui,sans-serif">
  <rect width="1200" height="680" fill="#0f1117"/>

  <!-- Top nav -->
  <rect width="1200" height="48" fill="#161b27"/>
  <rect x="0" y="47" width="1200" height="1" fill="#2a3040"/>
  <rect x="12" y="10" width="28" height="28" rx="6" fill="#00a3ff"/>
  <text x="26" y="29" text-anchor="middle" font-size="13" font-weight="700" fill="#fff">$</text>
  <text x="52" y="30" font-size="15" font-weight="700" fill="#e2e8f0">Kubecost</text>
  <text x="160" y="30" font-size="13" fill="#8b949e">Overview</text>
  <text x="260" y="30" font-size="13" fill="#8b949e">Allocations</text>
  <text x="380" y="30" font-size="13" fill="#00a3ff" font-weight="600">Savings</text>
  <text x="460" y="30" font-size="13" fill="#8b949e">Assets</text>
  <text x="536" y="30" font-size="13" fill="#8b949e">Reports</text>
  <text x="950" y="30" font-size="12" fill="#8b949e">orbital-production · Last 7 days</text>
  <rect x="1100" y="12" width="88" height="24" rx="4" fill="#00a3ff"/>
  <text x="1144" y="28" text-anchor="middle" font-size="11" font-weight="600" fill="#fff">Last 7d ▾</text>

  <!-- Left sidebar -->
  <rect width="200" height="680" fill="#161b27" y="48"/>
  <rect x="199" y="48" width="1" height="632" fill="#2a3040"/>
  <text x="16" y="76" font-size="11" font-weight="600" fill="#8b949e">NAMESPACES</text>
  <!-- orbital (selected) -->
  <rect x="0" y="80" width="199" height="44" fill="#1a2236"/>
  <rect x="0" y="80" width="3" height="44" fill="#00a3ff"/>
  <text x="16" y="100" font-size="13" font-weight="600" fill="#e2e8f0">orbital</text>
  <text x="16" y="116" font-size="11" fill="#00a3ff">$38.42 / week</text>

  <rect x="0" y="124" width="199" height="44" fill="#161b27"/>
  <text x="16" y="144" font-size="13" fill="#8b949e">observability</text>
  <text x="16" y="158" font-size="11" fill="#8b949e">$22.18 / week</text>

  <rect x="0" y="168" width="199" height="44" fill="#161b27"/>
  <text x="16" y="188" font-size="13" fill="#8b949e">tracing</text>
  <text x="16" y="202" font-size="11" fill="#8b949e">$8.64 / week</text>

  <rect x="0" y="212" width="199" height="44" fill="#161b27"/>
  <text x="16" y="232" font-size="13" fill="#8b949e">kubecost</text>
  <text x="16" y="246" font-size="11" fill="#8b949e">$5.30 / week</text>

  <rect x="0" y="256" width="199" height="44" fill="#161b27"/>
  <text x="16" y="276" font-size="13" fill="#8b949e">kube-system</text>
  <text x="16" y="290" font-size="11" fill="#8b949e">$4.12 / week</text>

  <line x1="0" y1="308" x2="199" y2="308" stroke="#2a3040" stroke-width="0.5"/>
  <text x="16" y="326" font-size="12" font-weight="600" fill="#e2e8f0">Total cluster</text>
  <text x="16" y="342" font-size="13" font-weight="600" fill="#00a3ff">$87.46 / week</text>
  <text x="16" y="358" font-size="11" fill="#8b949e">↓ $4.20 vs prev week</text>

  <!-- ─── MAIN CONTENT ─── -->

  <!-- Page title -->
  <text x="220" y="76" font-size="18" font-weight="700" fill="#e2e8f0">orbital — Cost Allocation</text>
  <text x="220" y="94" font-size="12" fill="#8b949e">7-day window · Mar 8 – Mar 14, 2025</text>

  <!-- Summary stat cards -->
  <rect x="220" y="104" width="190" height="80" rx="6" fill="#1a2236" stroke="#2a3040" stroke-width="0.5"/>
  <text x="240" y="124" font-size="11" fill="#8b949e">Total spend (7d)</text>
  <text x="240" y="156" font-size="28" font-weight="700" fill="#e2e8f0">$38.42</text>
  <text x="240" y="174" font-size="11" fill="#4caf50">↓ 8.3% vs prev week</text>

  <rect x="420" y="104" width="190" height="80" rx="6" fill="#1a2236" stroke="#2a3040" stroke-width="0.5"/>
  <text x="440" y="124" font-size="11" fill="#8b949e">CPU cost</text>
  <text x="440" y="156" font-size="28" font-weight="700" fill="#e2e8f0">$18.90</text>
  <text x="440" y="174" font-size="11" fill="#8b949e">49.2% of total</text>

  <rect x="620" y="104" width="190" height="80" rx="6" fill="#1a2236" stroke="#2a3040" stroke-width="0.5"/>
  <text x="640" y="124" font-size="11" fill="#8b949e">Memory cost</text>
  <text x="640" y="156" font-size="28" font-weight="700" fill="#e2e8f0">$14.22</text>
  <text x="640" y="174" font-size="11" fill="#8b949e">37.0% of total</text>

  <rect x="820" y="104" width="190" height="80" rx="6" fill="#1a2236" stroke="#2a3040" stroke-width="0.5"/>
  <text x="840" y="124" font-size="11" fill="#8b949e">Efficiency score</text>
  <text x="840" y="156" font-size="28" font-weight="700" fill="#f2cc0c">71%</text>
  <text x="840" y="174" font-size="11" fill="#f2cc0c">29% idle — optimise</text>

  <rect x="1020" y="104" width="168" height="80" rx="6" fill="#1a2236" stroke="#2a3040" stroke-width="0.5"/>
  <text x="1040" y="124" font-size="11" fill="#8b949e">Savings available</text>
  <text x="1040" y="156" font-size="28" font-weight="700" fill="#4caf50">$11.20</text>
  <text x="1040" y="174" font-size="11" fill="#4caf50">via rightsizing</text>

  <!-- ─── COST OVER TIME CHART ─── -->
  <rect x="220" y="196" width="580" height="200" rx="6" fill="#1a2236" stroke="#2a3040" stroke-width="0.5"/>
  <text x="240" y="218" font-size="12" font-weight="600" fill="#e2e8f0">Daily cost — orbital namespace</text>
  <!-- Grid -->
  <line x1="260" y1="232" x2="780" y2="232" stroke="#2a3040" stroke-width="0.5"/>
  <line x1="260" y1="262" x2="780" y2="262" stroke="#2a3040" stroke-width="0.5"/>
  <line x1="260" y1="292" x2="780" y2="292" stroke="#2a3040" stroke-width="0.5"/>
  <line x1="260" y1="322" x2="780" y2="322" stroke="#2a3040" stroke-width="0.5"/>
  <line x1="260" y1="352" x2="780" y2="352" stroke="#2a3040" stroke-width="0.5"/>
  <line x1="260" y1="376" x2="780" y2="376" stroke="#2a3040" stroke-width="0.5"/>
  <text x="254" y="235" text-anchor="end" font-size="10" fill="#8b949e">$8</text>
  <text x="254" y="265" text-anchor="end" font-size="10" fill="#8b949e">$6</text>
  <text x="254" y="295" text-anchor="end" font-size="10" fill="#8b949e">$4</text>
  <text x="254" y="325" text-anchor="end" font-size="10" fill="#8b949e">$2</text>
  <!-- Stacked bars -->
  <!-- Mon -->
  <rect x="272" y="278" width="48" height="48" fill="#00a3ff" fill-opacity="0.8"/>
  <rect x="272" y="254" width="48" height="24" fill="#00a3ff" fill-opacity="0.4"/>
  <text x="296" y="388" text-anchor="middle" font-size="10" fill="#8b949e">Mon</text>
  <!-- Tue -->
  <rect x="336" y="282" width="48" height="44" fill="#00a3ff" fill-opacity="0.8"/>
  <rect x="336" y="260" width="48" height="22" fill="#00a3ff" fill-opacity="0.4"/>
  <text x="360" y="388" text-anchor="middle" font-size="10" fill="#8b949e">Tue</text>
  <!-- Wed -->
  <rect x="400" y="270" width="48" height="56" fill="#00a3ff" fill-opacity="0.8"/>
  <rect x="400" y="248" width="48" height="22" fill="#00a3ff" fill-opacity="0.4"/>
  <text x="424" y="388" text-anchor="middle" font-size="10" fill="#8b949e">Wed</text>
  <!-- Thu -->
  <rect x="464" y="274" width="48" height="52" fill="#00a3ff" fill-opacity="0.8"/>
  <rect x="464" y="254" width="48" height="20" fill="#00a3ff" fill-opacity="0.4"/>
  <text x="488" y="388" text-anchor="middle" font-size="10" fill="#8b949e">Thu</text>
  <!-- Fri -->
  <rect x="528" y="268" width="48" height="58" fill="#00a3ff" fill-opacity="0.8"/>
  <rect x="528" y="246" width="48" height="22" fill="#00a3ff" fill-opacity="0.4"/>
  <text x="552" y="388" text-anchor="middle" font-size="10" fill="#8b949e">Fri</text>
  <!-- Sat -->
  <rect x="592" y="300" width="48" height="26" fill="#00a3ff" fill-opacity="0.8"/>
  <rect x="592" y="286" width="48" height="14" fill="#00a3ff" fill-opacity="0.4"/>
  <text x="616" y="388" text-anchor="middle" font-size="10" fill="#8b949e">Sat</text>
  <!-- Sun -->
  <rect x="656" y="298" width="48" height="28" fill="#00a3ff" fill-opacity="0.8"/>
  <rect x="656" y="284" width="48" height="14" fill="#00a3ff" fill-opacity="0.4"/>
  <text x="680" y="388" text-anchor="middle" font-size="10" fill="#8b949e">Sun</text>
  <!-- Legend -->
  <rect x="600" y="204" width="12" height="12" rx="2" fill="#00a3ff" fill-opacity="0.8"/>
  <text x="616" y="214" font-size="11" fill="#8b949e">CPU</text>
  <rect x="660" y="204" width="12" height="12" rx="2" fill="#00a3ff" fill-opacity="0.4"/>
  <text x="676" y="214" font-size="11" fill="#8b949e">Memory</text>

  <!-- ─── RIGHTSIZING RECOMMENDATIONS ─── -->
  <rect x="812" y="196" width="376" height="200" rx="6" fill="#1a2236" stroke="#2a3040" stroke-width="0.5"/>
  <text x="832" y="218" font-size="12" font-weight="600" fill="#e2e8f0">Rightsizing recommendations</text>
  <rect x="832" y="224" width="120" height="18" rx="9" fill="#1a3a1a"/>
  <text x="892" y="237" text-anchor="middle" font-size="10" fill="#4caf50">Save $11.20/week</text>

  <!-- Table header -->
  <rect x="812" y="248" width="376" height="20" fill="#0f1117"/>
  <text x="832" y="262" font-size="10" fill="#8b949e">Container</text>
  <text x="940" y="262" font-size="10" fill="#8b949e">Current req</text>
  <text x="1040" y="262" font-size="10" fill="#8b949e">Recommended</text>
  <text x="1144" y="262" font-size="10" fill="#8b949e">Saving</text>

  <!-- Row 1 -->
  <line x1="812" y1="268" x2="1188" y2="268" stroke="#2a3040" stroke-width="0.5"/>
  <text x="832" y="282" font-size="11" fill="#e2e8f0">orbital (CPU)</text>
  <text x="940" y="282" font-size="11" fill="#e2e8f0">200m</text>
  <text x="1040" y="282" font-size="11" fill="#4caf50">140m</text>
  <text x="1144" y="282" font-size="11" fill="#4caf50">$5.40</text>

  <!-- Row 2 -->
  <line x1="812" y1="290" x2="1188" y2="290" stroke="#2a3040" stroke-width="0.5"/>
  <text x="832" y="304" font-size="11" fill="#e2e8f0">orbital (Memory)</text>
  <text x="940" y="304" font-size="11" fill="#e2e8f0">256Mi</text>
  <text x="1040" y="304" font-size="11" fill="#4caf50">180Mi</text>
  <text x="1144" y="304" font-size="11" fill="#4caf50">$3.80</text>

  <!-- Row 3 -->
  <line x1="812" y1="312" x2="1188" y2="312" stroke="#2a3040" stroke-width="0.5"/>
  <text x="832" y="326" font-size="11" fill="#e2e8f0">init-migrations (CPU)</text>
  <text x="940" y="326" font-size="11" fill="#e2e8f0">100m</text>
  <text x="1040" y="326" font-size="11" fill="#4caf50">50m</text>
  <text x="1144" y="326" font-size="11" fill="#4caf50">$2.00</text>

  <!-- Row 4 -->
  <line x1="812" y1="334" x2="1188" y2="334" stroke="#2a3040" stroke-width="0.5"/>
  <text x="832" y="348" font-size="11" fill="#e2e8f0">init-migrations (Memory)</text>
  <text x="940" y="348" font-size="11" fill="#e2e8f0">128Mi</text>
  <text x="1040" y="348" font-size="11" fill="#4caf50">96Mi</text>
  <text x="1144" y="348" font-size="11" fill="#4caf50">$0.00</text>

  <rect x="832" y="366" width="160" height="24" rx="4" fill="#00a3ff"/>
  <text x="912" y="382" text-anchor="middle" font-size="12" font-weight="600" fill="#fff">Apply recommendations</text>

  <!-- ─── BUDGET ALERT STATUS ─── -->
  <rect x="220" y="408" width="580" height="120" rx="6" fill="#1a2236" stroke="#2a3040" stroke-width="0.5"/>
  <text x="240" y="430" font-size="12" font-weight="600" fill="#e2e8f0">Budget alerts</text>
  <!-- Row 1: OK -->
  <rect x="240" y="440" width="8" height="8" rx="4" fill="#4caf50"/>
  <text x="256" y="450" font-size="12" fill="#e2e8f0">orbital namespace</text>
  <text x="430" y="450" font-size="12" fill="#8b949e">$38.42 / $150.00 limit</text>
  <rect x="640" y="440" width="120" height="12" rx="6" fill="#2a3040"/>
  <rect x="640" y="440" width="31" height="12" rx="6" fill="#4caf50"/>
  <text x="776" y="450" font-size="11" fill="#4caf50">25.6%</text>
  <!-- Row 2: OK -->
  <rect x="240" y="462" width="8" height="8" rx="4" fill="#4caf50"/>
  <text x="256" y="472" font-size="12" fill="#e2e8f0">total cluster</text>
  <text x="430" y="472" font-size="12" fill="#8b949e">$87.46 / $500.00 limit</text>
  <rect x="640" y="462" width="120" height="12" rx="6" fill="#2a3040"/>
  <rect x="640" y="462" width="21" height="12" rx="6" fill="#4caf50"/>
  <text x="776" y="472" font-size="11" fill="#4caf50">17.5%</text>
  <!-- Row 3: Warning -->
  <rect x="240" y="484" width="8" height="8" rx="4" fill="#f2cc0c"/>
  <text x="256" y="494" font-size="12" fill="#e2e8f0">cluster efficiency</text>
  <text x="430" y="494" font-size="12" fill="#8b949e">71% / 60% minimum</text>
  <rect x="640" y="484" width="120" height="12" rx="6" fill="#2a3040"/>
  <rect x="640" y="484" width="85" height="12" rx="6" fill="#f2cc0c" fill-opacity="0.6"/>
  <text x="776" y="494" font-size="11" fill="#f2cc0c">71% — optimise</text>

  <!-- Last report sent -->
  <text x="240" y="520" font-size="11" fill="#8b949e">Last weekly report sent: Mon 10 Mar 2025 08:00 UTC → #finops</text>

  <!-- ─── COST BREAKDOWN TABLE ─── -->
  <rect x="812" y="408" width="376" height="260" rx="6" fill="#1a2236" stroke="#2a3040" stroke-width="0.5"/>
  <text x="832" y="430" font-size="12" font-weight="600" fill="#e2e8f0">Cost breakdown by workload</text>

  <rect x="812" y="438" width="376" height="20" fill="#0f1117"/>
  <text x="832" y="452" font-size="10" fill="#8b949e">Workload</text>
  <text x="1000" y="452" font-size="10" fill="#8b949e">CPU</text>
  <text x="1060" y="452" font-size="10" fill="#8b949e">Memory</text>
  <text x="1140" y="452" font-size="10" fill="#8b949e">Total</text>

  <line x1="812" y1="458" x2="1188" y2="458" stroke="#2a3040" stroke-width="0.5"/>
  <text x="832" y="472" font-size="11" fill="#e2e8f0">orbital (Rollout)</text>
  <text x="1000" y="472" font-size="11" fill="#e2e8f0">$14.70</text>
  <text x="1060" y="472" font-size="11" fill="#e2e8f0">$11.20</text>
  <text x="1140" y="472" font-size="11" fill="#00a3ff">$25.90</text>

  <line x1="812" y1="480" x2="1188" y2="480" stroke="#2a3040" stroke-width="0.5"/>
  <text x="832" y="494" font-size="11" fill="#e2e8f0">otel-collector (DaemonSet)</text>
  <text x="1000" y="494" font-size="11" fill="#e2e8f0">$2.80</text>
  <text x="1060" y="494" font-size="11" fill="#e2e8f0">$2.10</text>
  <text x="1140" y="494" font-size="11" fill="#00a3ff">$4.90</text>

  <line x1="812" y1="502" x2="1188" y2="502" stroke="#2a3040" stroke-width="0.5"/>
  <text x="832" y="516" font-size="11" fill="#e2e8f0">jaeger</text>
  <text x="1000" y="516" font-size="11" fill="#e2e8f0">$1.40</text>
  <text x="1060" y="516" font-size="11" fill="#e2e8f0">$0.92</text>
  <text x="1140" y="516" font-size="11" fill="#00a3ff">$2.32</text>

  <line x1="812" y1="524" x2="1188" y2="524" stroke="#2a3040" stroke-width="0.5"/>
  <text x="832" y="538" font-size="11" fill="#8b949e">Idle / unallocated</text>
  <text x="1000" y="538" font-size="11" fill="#8b949e">—</text>
  <text x="1060" y="538" font-size="11" fill="#8b949e">—</text>
  <text x="1140" y="538" font-size="11" fill="#f2cc0c">$5.30</text>

  <line x1="812" y1="546" x2="1188" y2="546" stroke="#2a3040" stroke-width="1"/>
  <text x="832" y="562" font-size="12" font-weight="600" fill="#e2e8f0">Total orbital</text>
  <text x="1000" y="562" font-size="12" font-weight="600" fill="#e2e8f0">$18.90</text>
  <text x="1060" y="562" font-size="12" font-weight="600" fill="#e2e8f0">$14.22</text>
  <text x="1140" y="562" font-size="12" font-weight="700" fill="#00a3ff">$38.42</text>

  <!-- footer -->
  <rect x="0" y="656" width="1200" height="24" fill="#161b27"/>
  <text x="220" y="671" font-size="11" fill="#8b949e">Kubecost v1.108.0 · orbital-production cluster · Last updated 14 Mar 2025 14:32 UTC · github.com/aryalrishi29-blip/orbital</text>
</svg>
